<svg id="Warstwa_1" data-name="Warstwa 1" xmlns="http://www.w3.org/2000/svg" xmlns:xlink="http://www.w3.org/1999/xlink" viewBox="0 0 256 256"><defs><style>.cls-1{fill:none;}.cls-2{fill:#a4296a;}.cls-3{fill:#a0c754;}.cls-4{fill:#76b22b;}.cls-5{fill:#6c2548;}.cls-6{clip-path:url(#clip-path);}.cls-7{fill:#fff;}.cls-8{fill:#fcc12c;}.cls-9{fill:#e40670;}</style><clipPath id="clip-path"><circle class="cls-1" cx="128" cy="125.96" r="79.93"/></clipPath></defs><title>icon</title><path class="cls-2" d="M209.78,12.93l-33.94,49a79.94,79.94,0,1,0-91,131.33l-36.1,52.12A90.45,90.45,0,0,1,.18,165.17V91.3A90.49,90.49,0,0,1,90.66.81h73.88A90,90,0,0,1,209.78,12.93Z"/><path class="cls-3" d="M175.84,61.92l-91,131.33a79.94,79.94,0,1,1,91-131.33Z"/><path class="cls-4" d="M175.84,61.92a79.94,79.94,0,0,1-91,131.33Z"/><path class="cls-5" d="M255,91.3v73.87a90.47,90.47,0,0,1-90.47,90.48H90.66a90,90,0,0,1-41.92-10.28l36.1-52.12a79.94,79.94,0,0,0,91-131.33l33.94-49A90.41,90.41,0,0,1,255,91.3Z"/><g class="cls-6"><path d="M93.39,163.71c-10.3-12.59-11.55-26.9-6.85-42.27a5.73,5.73,0,0,0,0-2.82c-1.43-6.2-2.79-12.42-2.39-18.83a32.33,32.33,0,0,1,1.3-7.17c.94-3.11,3-4.15,6.16-3.47a33.48,33.48,0,0,1,15.73,8.36,2.63,2.63,0,0,0,3.31.59,59.85,59.85,0,0,1,19.55-5.22,2.59,2.59,0,0,0,2.63-2.09A33.82,33.82,0,0,1,142,76c2.77-2.61,5.07-2.62,7.9,0,3.9,3.58,6.18,8.21,8.18,13a9.89,9.89,0,0,1,.68,1.75c1.22,6.64,5.31,11.38,9.61,16.35a42.21,42.21,0,0,1,10.25,26.66c.1,2.6-.61,5.23-1,8,2.59,1.72,5.33,3.65,5.27,7.59,0,.33.42.71.7,1,5.36,5.53,8.83,12.22,11.45,19.31,2.57,6.94,4.73,14,6.85,21.13,1.58,5.3-.33,8.4-5.72,9.84q-44.61,11.88-89.22,23.74c-5.35,1.43-8.43-.4-9.86-5.74-2.93-10.89-5.27-21.87-5.4-33.2a49.55,49.55,0,0,1,.6-7.49,20.62,20.62,0,0,0,0-7.14C91.85,168.57,93,166.09,93.39,163.71Zm52.55-85.14A30.81,30.81,0,0,0,136.5,94.4c-.45,1.72-1.33,2.68-3.13,2.8a59,59,0,0,0-29.63,9.88c-1.26.85-2.54,1-3.48-.36s-.37-2.62,1-3.51c1-.67,2-1.39,3.17-2.16-4.34-3.73-8.89-6.52-14.72-7.55a45.65,45.65,0,0,0-1,5.7,52.31,52.31,0,0,0,3,19.72,3.26,3.26,0,0,1-.09,2.2c-4,9-3.61,18.2-1.32,27.48,2,8,6.8,13.56,14.69,16.07a45.26,45.26,0,0,0,10.42,2.05,71.17,71.17,0,0,0,34.28-6.13c6.4-2.83,12.47-6.24,17.4-11.35,5.14-5.32,7.91-11.56,6.69-19a45.62,45.62,0,0,0-6.45-16.93,33,33,0,0,0-16.2-13.66c-1.83-.72-2.54-2-1.87-3.34.82-1.59,2.13-1.56,3.58-.94.87.37,1.75.7,3,1.21C153.58,89.76,151.28,83.47,145.94,78.57ZM97.2,176.29c-.19,1-.35,1.78-.45,2.53a43,43,0,0,0-.46,4.36c-.21,12.07,2.41,23.71,5.54,35.25.51,1.91,1.93,2.16,3.65,1.7l89.79-23.91c2.36-.63,2.82-1.47,2.23-3.83a141.17,141.17,0,0,0-9.82-28,38.08,38.08,0,0,0-7-10.32,48.24,48.24,0,0,1-14,12.78c-5.35,3.21-11,5.88-16.52,8.78,3,4.8,3.11,8.38.38,11.89a8.77,8.77,0,0,1-9.75,3c-5.26-1.82-6.88-5.86-6.29-10.75-6.34.24-12.59.72-18.83.65A46.54,46.54,0,0,1,97.2,176.29Zm40.51-6.72-4.82.8c-11.54,1.83-22.94,2.22-33.79-3.18-1-.51-1.65-.33-2.07.83-.77,2.14-.48,2.93,1.7,3.91,8.72,3.9,17.91,4.57,27.27,3.73,4.26-.38,8.5-1.15,12.86-1.76Zm5.68,3.08c3.51-1.35,6.74-2.45,9.87-3.8,8.4-3.63,16-8.45,22.06-15.46a22.93,22.93,0,0,0,2.6-3.53c.92-1.58-.38-2.52-1.44-3.21a2.09,2.09,0,0,0-1.91.62,40.78,40.78,0,0,1-15,13.38c-5.52,2.91-11.28,5.38-17.13,8.14a7.73,7.73,0,0,0,.14.81C142.8,170.47,143,171.33,143.39,172.65ZM139.19,183a4.34,4.34,0,0,0,5.34,3.15,4.48,4.48,0,0,0,3.19-5.53,4.42,4.42,0,0,0-5.46-3A4.28,4.28,0,0,0,139.19,183Z"/><path class="cls-7" d="M145.94,78.57c5.34,4.9,7.64,11.19,9.91,18-1.28-.51-2.16-.84-3-1.21-1.45-.62-2.76-.65-3.58.94-.67,1.33,0,2.62,1.87,3.34a33,33,0,0,1,16.2,13.66,45.62,45.62,0,0,1,6.45,16.93c1.22,7.45-1.55,13.69-6.69,19-4.93,5.11-11,8.52-17.4,11.35a71.17,71.17,0,0,1-34.28,6.13A45.26,45.26,0,0,1,105,164.67c-7.89-2.51-12.72-8.06-14.69-16.07-2.29-9.28-2.66-18.48,1.32-27.48a3.26,3.26,0,0,0,.09-2.2,52.31,52.31,0,0,1-3-19.72,45.65,45.65,0,0,1,1-5.7c5.83,1,10.38,3.82,14.72,7.55-1.13.77-2.14,1.49-3.17,2.16-1.37.89-2,2.05-1,3.51s2.22,1.21,3.48.36a59,59,0,0,1,29.63-9.88c1.8-.12,2.68-1.08,3.13-2.8A30.81,30.81,0,0,1,145.94,78.57Zm-9.57,65.58c1-2.33,2.09-4.68,3.12-7.05a4.46,4.46,0,0,0-.65-5.08,4.51,4.51,0,0,0-4.76-1.41c-2.71.68-5.41,1.38-8.1,2.16a4.53,4.53,0,0,0-3.38,3.63,4.32,4.32,0,0,0,1.87,4.56c1.51,1.15,3,2.26,4.56,3.37,2.13,1.55,2.23,2.19.59,4.3-2.93,3.77-8.87,4.67-13.39,2-1.3-.78-2.56-1-3.5.34s-.33,2.56,1,3.52c4.73,3.44,9.78,3.22,14.65.72,2.54-1.3,4.57-3.61,7-5.59,7.15,3.73,15.85,1.55,19.67-5.26,1.28-2.29,1.24-3.93-.24-4.54-2.19-.9-3,.7-3.74,2.27a11.94,11.94,0,0,1-.67,1.07C147.91,147,138.78,148.35,136.37,144.15Zm-34.28-12.49a2.2,2.2,0,0,0,2.63,2.18c1.57-.22,2-1.46,1.9-3-.27-3,.78-4.64,3.24-5.26s4.13.39,5.37,3.13c.61,1.37,1.63,2,3,1.52s1.74-1.65,1.36-3.1c-1.15-4.34-6.14-7.18-10.75-6.08A9,9,0,0,0,102.09,131.66ZM137,122.34a2.22,2.22,0,0,0,2.6,2.22c1.59-.2,2.07-1.43,1.95-3-.25-3,.75-4.65,3.2-5.28s4.19.37,5.38,3.09c.61,1.37,1.62,2,3,1.56s1.78-1.77,1.34-3.28a9.13,9.13,0,0,0-10.87-5.88A9,9,0,0,0,137,122.34Z"/><path class="cls-7" d="M97.2,176.29a46.54,46.54,0,0,0,18.47,4.14c6.24.07,12.49-.41,18.83-.65-.59,4.89,1,8.93,6.29,10.75a8.77,8.77,0,0,0,9.75-3c2.73-3.51,2.58-7.09-.38-11.89,5.51-2.9,11.17-5.57,16.52-8.78a48.24,48.24,0,0,0,14-12.78,38.08,38.08,0,0,1,7,10.32,141.17,141.17,0,0,1,9.82,28c.59,2.36.13,3.2-2.23,3.83l-89.79,23.91c-1.72.46-3.14.21-3.65-1.7-3.13-11.54-5.75-23.18-5.54-35.25a43,43,0,0,1,.46-4.36C96.85,178.07,97,177.32,97.2,176.29ZM183,190.18h0c-.18-.67-.33-1.36-.54-2-.48-1.42-1.41-2.34-3-1.9s-1.84,1.62-1.54,3a39.93,39.93,0,0,0,1.09,4c.45,1.35,1.55,2.28,2.84,1.64.8-.4,1.26-1.74,1.57-2.75C183.68,191.61,183.22,190.86,183,190.18ZM139.4,201.71c-.22-.81-.2-1.84-.7-2.37-.67-.71-2-1.63-2.58-1.39a3.34,3.34,0,0,0-1.65,2.59,10.65,10.65,0,0,0,1.22,4.6c.4.75,1.95,1.62,2.54,1.38.81-.33,1.39-1.62,1.69-2.61C140.11,203.28,139.6,202.45,139.4,201.71Zm-21.86,5.82a6.26,6.26,0,0,0-.7-2.38c-.58-.7-1.73-1.62-2.35-1.45-.81.24-1.94,1.49-1.89,2.23a15.83,15.83,0,0,0,1.46,5.38,2.75,2.75,0,0,0,2.55,1c.74-.34,1.24-1.6,1.46-2.55C118.23,209.07,117.75,208.27,117.54,207.53Zm10.92-2.92c-.19-.74-.37-1.48-.59-2.22-.4-1.36-1.5-2.09-2.68-1.58a3.21,3.21,0,0,0-1.68,2.43,13,13,0,0,0,1.35,5,3,3,0,0,0,2.68,1.12c.7-.22,1.22-1.59,1.45-2.54C129.14,206.16,128.66,205.35,128.46,204.61Zm17.43-4.77c.19.74.38,1.49.59,2.22.39,1.37,1.49,2.11,2.67,1.6a3.17,3.17,0,0,0,1.69-2.42,12.83,12.83,0,0,0-1.34-5,3,3,0,0,0-2.68-1.14c-.7.22-1.23,1.59-1.45,2.54C145.21,198.29,145.69,199.1,145.89,199.84Zm15.44-3.93-.08,0c-.21-.81-.19-1.87-.7-2.36a4.3,4.3,0,0,0-2.83-1.41c-1.28.12-1.82,1.36-1.47,2.73a20.09,20.09,0,0,0,1.28,4.39,3.16,3.16,0,0,0,2.53,1.44c.67-.07,1.48-1.32,1.72-2.18S161.51,196.79,161.33,195.91Zm6.37-1.82c.2.74.36,1.49.6,2.21.43,1.32,1.51,2.1,2.7,1.55a3.25,3.25,0,0,0,1.63-2.47,11,11,0,0,0-1.27-4.78,3.28,3.28,0,0,0-2.8-1.28c-.6.1-1.16,1.61-1.38,2.56C167,192.55,167.51,193.35,167.7,194.09Zm26.13-6.88h0c-.21-.8-.2-1.82-.7-2.36a3.76,3.76,0,0,0-2.58-1.39,2.76,2.76,0,0,0-1.64,2.18,16.76,16.76,0,0,0,1.47,5.37,2.79,2.79,0,0,0,2.56,1c.69-.23,1.27-1.47,1.45-2.36C194.55,188.88,194,188,193.83,187.21Zm-87.17,23.24h0c-.18-.67-.35-1.34-.54-2-.39-1.4-1.31-2.22-2.76-1.89a2.29,2.29,0,0,0-1.69,2.93,27,27,0,0,0,1.19,4.42c.46,1.27,1.64,2,2.81,1.35a4.26,4.26,0,0,0,1.48-2.59C107.34,212,106.86,211.19,106.66,210.45Z"/><path class="cls-7" d="M137.71,169.57l1.15,4.33c-4.36.61-8.6,1.38-12.86,1.76-9.36.84-18.55.17-27.27-3.73-2.18-1-2.47-1.77-1.7-3.91.42-1.16,1-1.34,2.07-.83,10.85,5.4,22.25,5,33.79,3.18Z"/><path class="cls-7" d="M143.39,172.65c-.35-1.32-.59-2.18-.81-3.05a7.73,7.73,0,0,1-.14-.81c5.85-2.76,11.61-5.23,17.13-8.14a40.78,40.78,0,0,0,15-13.38,2.09,2.09,0,0,1,1.91-.62c1.06.69,2.36,1.63,1.44,3.21a22.93,22.93,0,0,1-2.6,3.53c-6,7-13.66,11.83-22.06,15.46C150.13,170.2,146.9,171.3,143.39,172.65Z"/><path class="cls-8" d="M139.19,183a4.28,4.28,0,0,1,3.07-5.36,4.42,4.42,0,0,1,5.46,3,4.48,4.48,0,0,1-3.19,5.53A4.34,4.34,0,0,1,139.19,183Z"/><path d="M136.37,144.15c2.41,4.2,11.54,2.84,14-1a11.94,11.94,0,0,0,.67-1.07c.76-1.57,1.55-3.17,3.74-2.27,1.48.61,1.52,2.25.24,4.54-3.82,6.81-12.52,9-19.67,5.26-2.43,2-4.46,4.29-7,5.59-4.87,2.5-9.92,2.72-14.65-.72-1.32-1-2-2.08-1-3.52s2.2-1.12,3.5-.34c4.52,2.7,10.46,1.8,13.39-2,1.64-2.11,1.54-2.75-.59-4.3-1.53-1.11-3-2.22-4.56-3.37a4.32,4.32,0,0,1-1.87-4.56,4.53,4.53,0,0,1,3.38-3.63c2.69-.78,5.39-1.48,8.1-2.16a4.51,4.51,0,0,1,4.76,1.41,4.46,4.46,0,0,1,.65,5.08C138.46,139.47,137.41,141.82,136.37,144.15Zm-1.11-8.92-7.95,2.11,3.77,2.78c1,.75,1.8.58,2.31-.59C134,138.2,134.55,136.86,135.26,135.23Z"/><path d="M102.09,131.66a9,9,0,0,1,6.74-10.59c4.61-1.1,9.6,1.74,10.75,6.08.38,1.45,0,2.6-1.36,3.1s-2.38-.15-3-1.52c-1.24-2.74-3-3.73-5.37-3.13s-3.51,2.29-3.24,5.26c.14,1.52-.33,2.76-1.9,3A2.2,2.2,0,0,1,102.09,131.66Z"/><path d="M137,122.34a9,9,0,0,1,6.58-10.52,9.13,9.13,0,0,1,10.87,5.88c.44,1.51.13,2.75-1.34,3.28s-2.37-.19-3-1.56c-1.19-2.72-3-3.71-5.38-3.09s-3.45,2.26-3.2,5.28c.12,1.52-.36,2.75-1.95,3A2.22,2.22,0,0,1,137,122.34Z"/><path d="M183,190.18c.18.68.64,1.43.48,2-.31,1-.77,2.35-1.57,2.75-1.29.64-2.39-.29-2.84-1.64a39.93,39.93,0,0,1-1.09-4c-.3-1.38.1-2.59,1.54-3s2.49.48,3,1.9c.21.66.36,1.35.54,2Z"/><path d="M139.4,201.71c.2.74.71,1.57.52,2.2-.3,1-.88,2.28-1.69,2.61-.59.24-2.14-.63-2.54-1.38a10.65,10.65,0,0,1-1.22-4.6,3.34,3.34,0,0,1,1.65-2.59c.6-.24,1.91.68,2.58,1.39C139.2,199.87,139.18,200.9,139.4,201.71Z"/><path d="M117.55,207.53c.2.74.68,1.54.52,2.2-.22,1-.72,2.21-1.46,2.55a2.75,2.75,0,0,1-2.55-1,15.83,15.83,0,0,1-1.46-5.38c0-.74,1.08-2,1.89-2.23.62-.17,1.77.75,2.35,1.45A6.44,6.44,0,0,1,117.55,207.53Z"/><path d="M128.46,204.61c.2.74.68,1.55.53,2.21-.23,1-.75,2.32-1.45,2.54a3,3,0,0,1-2.68-1.12,13,13,0,0,1-1.35-5,3.21,3.21,0,0,1,1.68-2.43c1.18-.51,2.28.22,2.68,1.58C128.09,203.13,128.27,203.87,128.46,204.61Z"/><path d="M145.89,199.84c-.2-.74-.68-1.55-.52-2.2.22-.95.75-2.32,1.45-2.54a3,3,0,0,1,2.68,1.14,12.83,12.83,0,0,1,1.34,5,3.17,3.17,0,0,1-1.69,2.42c-1.18.51-2.28-.23-2.67-1.6C146.27,201.33,146.08,200.58,145.89,199.84Z"/><path d="M161.33,195.91c.18.88.66,1.85.45,2.63s-1.05,2.11-1.72,2.18a3.16,3.16,0,0,1-2.53-1.44,20.09,20.09,0,0,1-1.28-4.39c-.35-1.37.19-2.61,1.47-2.73a4.3,4.3,0,0,1,2.83,1.41c.51.49.49,1.55.7,2.36Z"/><path d="M167.7,194.09c-.19-.74-.67-1.54-.52-2.21.22-.95.78-2.46,1.38-2.56a3.28,3.28,0,0,1,2.8,1.28,11,11,0,0,1,1.27,4.78,3.25,3.25,0,0,1-1.63,2.47c-1.19.55-2.27-.23-2.7-1.55C168.06,195.58,167.9,194.83,167.7,194.09Z"/><path d="M193.83,187.21c.21.8.72,1.67.57,2.4-.18.89-.76,2.13-1.45,2.36a2.79,2.79,0,0,1-2.56-1,16.76,16.76,0,0,1-1.47-5.37,2.76,2.76,0,0,1,1.64-2.18,3.76,3.76,0,0,1,2.58,1.39c.5.54.49,1.56.7,2.36Z"/><path d="M106.66,210.45c.2.74.68,1.55.52,2.2a4.26,4.26,0,0,1-1.48,2.59c-1.17.65-2.35-.08-2.81-1.35a27,27,0,0,1-1.19-4.42,2.29,2.29,0,0,1,1.69-2.93c1.45-.33,2.37.49,2.76,1.89.19.67.36,1.34.54,2Z"/><path class="cls-9" d="M135.26,135.23c-.71,1.63-1.28,3-1.87,4.3-.51,1.17-1.29,1.34-2.31.59l-3.77-2.78Z"/></g></svg>